<svg width="19" height="18" viewBox="0 0 19 18" fill="none" xmlns="http://www.w3.org/2000/svg">
<path d="M13.7817 0.000976562H4.78187C2.30715 0.000976562 0.281982 2.02615 0.281982 4.50087V13.5011C0.281982 15.9751 2.30715 18.001 4.78187 18.001H13.7817C16.2564 18.001 18.2815 15.9751 18.2815 13.5011V4.50087C18.2815 2.02615 16.2564 0.000976562 13.7817 0.000976562ZM16.7815 13.5011C16.7815 15.1548 15.4363 16.5009 13.7817 16.5009H4.78187C3.12794 16.5009 1.78202 15.1548 1.78202 13.5011V4.50087C1.78202 2.84672 3.12794 1.50101 4.78187 1.50101H13.7817C15.4363 1.50101 16.7815 2.84672 16.7815 4.50087V13.5011Z" fill="white"/>
<path fill-rule="evenodd" clip-rule="evenodd" d="M1.28161 9.50098C0.881611 4.30098 2.44828 2.00098 3.28161 1.50098L7.78162 1.00098L14.7816 1.50098L16.2816 2.50098L17.2816 4.50098V9.00098V12.501L16.7816 15.501L15.7816 16.501L13.2816 17.501H10.7816L5.78162 17.001C4.94828 17.001 3.18161 16.901 2.78162 16.501C2.7459 16.4653 2.71019 16.4321 2.67447 16.3989C2.21019 15.9678 1.7459 15.5367 1.28161 9.50098ZM9.28163 4.50098C6.79588 4.50098 4.78174 6.51534 4.78174 9.00087C4.78174 11.4855 6.79588 13.5012 9.28163 13.5012C11.7667 13.5012 13.7815 11.4855 13.7815 9.00087C13.7815 6.51534 11.7667 4.50098 9.28163 4.50098ZM9.28163 12.0012C7.62497 12.0012 6.28177 10.658 6.28177 9.00087C6.28177 7.34377 7.62497 6.00101 9.28163 6.00101C10.9383 6.00101 12.2815 7.34377 12.2815 9.00087C12.2815 10.658 10.9383 12.0012 9.28163 12.0012ZM15.2822 4.12546C15.2822 4.74677 14.7785 5.25043 14.1572 5.25043C13.5359 5.25043 13.0322 4.74677 13.0322 4.12546C13.0322 3.50416 13.5359 3.00049 14.1572 3.00049C14.7785 3.00049 15.2822 3.50416 15.2822 4.12546Z" fill="white"/>
</svg>
