<svg width="11" height="18" viewBox="0 0 11 18" fill="none" xmlns="http://www.w3.org/2000/svg">
<path d="M3.44005 9.922C3.37405 9.922 1.92205 9.922 1.26205 9.922C0.910049 9.922 0.800049 9.79 0.800049 9.46C0.800049 8.58 0.800049 7.678 0.800049 6.798C0.800049 6.446 0.932049 6.336 1.26205 6.336H3.44005C3.44005 6.27 3.44005 4.994 3.44005 4.4C3.44005 3.52 3.59405 2.684 4.03404 1.914C4.49604 1.122 5.15604 0.594 5.99204 0.286C6.54204 0.0879998 7.09204 0 7.68604 0H9.84204C10.15 0 10.282 0.132 10.282 0.44V2.948C10.282 3.256 10.15 3.388 9.84204 3.388C9.24804 3.388 8.65404 3.388 8.06004 3.41C7.46604 3.41 7.15804 3.696 7.15804 4.312C7.13604 4.972 7.15804 5.61 7.15804 6.292H9.71004C10.062 6.292 10.194 6.424 10.194 6.776V9.438C10.194 9.79 10.084 9.9 9.71004 9.9C8.91804 9.9 7.22404 9.9 7.15804 9.9V17.072C7.15804 17.446 7.04804 17.578 6.65204 17.578C5.72804 17.578 4.82604 17.578 3.90205 17.578C3.57205 17.578 3.44005 17.446 3.44005 17.116C3.44005 14.806 3.44005 9.988 3.44005 9.922Z" fill="white"/>
</svg>
