<svg width="21" height="17" viewBox="0 0 21 17" fill="none" xmlns="http://www.w3.org/2000/svg">
<path d="M20.8 2.00249C20.02 2.34049 19.214 2.57449 18.356 2.67849C19.24 2.15849 19.916 1.32649 20.228 0.312488C19.396 0.806488 18.486 1.14449 17.524 1.35249C16.744 0.520488 15.626 0.000488281 14.404 0.000488281C12.038 0.000488281 10.14 1.92449 10.14 4.26449C10.14 4.60249 10.166 4.91449 10.244 5.22649C6.708 5.07049 3.588 3.35449 1.482 0.780488C-0.0259998 3.48449 1.664 5.72049 2.782 6.47449C2.106 6.47449 1.43 6.26649 0.858 5.95449C0.858 8.06049 2.34 9.80249 4.264 10.1925C3.848 10.3225 2.912 10.4005 2.34 10.2705C2.886 11.9605 4.472 13.2085 6.318 13.2345C4.862 14.3785 2.73 15.2885 0 15.0025C1.898 16.2245 4.134 16.9265 6.552 16.9265C14.404 16.9265 18.668 10.4265 18.668 4.81049C18.668 4.62849 18.668 4.44649 18.642 4.26449C19.526 3.61449 20.254 2.86049 20.8 2.00249Z" fill="white"/>
</svg>
